<mxfile host="app.diagrams.net" agent="Mozilla/5.0 (Windows NT 10.0; Win64; x64) AppleWebKit/537.36 (KHTML, like Gecko) Chrome/136.0.0.0 Safari/537.36 Edg/136.0.0.0" version="27.0.6">
  <diagram name="第 1 页" id="nbDAPU_vJQ_5vxIa8ZPA">
    <mxGraphModel dx="686" dy="1135" grid="1" gridSize="10" guides="1" tooltips="1" connect="1" arrows="1" fold="1" page="1" pageScale="1" pageWidth="827" pageHeight="1169" math="0" shadow="0">
      <root>
        <mxCell id="0" />
        <mxCell id="1" parent="0" />
        <mxCell id="Xt39_B0bdLKIF7K6Xh9_-75" value="" style="rounded=0;whiteSpace=wrap;html=1;dashed=1;dashPattern=8 8;" vertex="1" parent="1">
          <mxGeometry x="40" y="570" width="590" height="340" as="geometry" />
        </mxCell>
        <mxCell id="Xt39_B0bdLKIF7K6Xh9_-42" value="" style="rounded=0;whiteSpace=wrap;html=1;dashed=1;dashPattern=8 8;" vertex="1" parent="1">
          <mxGeometry x="40" y="20" width="590" height="550" as="geometry" />
        </mxCell>
        <mxCell id="Xt39_B0bdLKIF7K6Xh9_-10" style="edgeStyle=orthogonalEdgeStyle;rounded=0;orthogonalLoop=1;jettySize=auto;html=1;exitX=0.5;exitY=1;exitDx=0;exitDy=0;entryX=0.5;entryY=0;entryDx=0;entryDy=0;" edge="1" parent="1" source="Xt39_B0bdLKIF7K6Xh9_-1" target="Xt39_B0bdLKIF7K6Xh9_-5">
          <mxGeometry relative="1" as="geometry" />
        </mxCell>
        <mxCell id="Xt39_B0bdLKIF7K6Xh9_-1" value="Data Source" style="text;html=1;align=center;verticalAlign=middle;whiteSpace=wrap;rounded=0;" vertex="1" parent="1">
          <mxGeometry x="120" y="40" width="220" height="30" as="geometry" />
        </mxCell>
        <mxCell id="Xt39_B0bdLKIF7K6Xh9_-8" style="edgeStyle=orthogonalEdgeStyle;rounded=0;orthogonalLoop=1;jettySize=auto;html=1;exitX=0.5;exitY=1;exitDx=0;exitDy=0;entryX=0.5;entryY=0;entryDx=0;entryDy=0;" edge="1" parent="1" source="Xt39_B0bdLKIF7K6Xh9_-3" target="Xt39_B0bdLKIF7K6Xh9_-6">
          <mxGeometry relative="1" as="geometry" />
        </mxCell>
        <mxCell id="Xt39_B0bdLKIF7K6Xh9_-3" value="Base Model" style="text;html=1;align=center;verticalAlign=middle;whiteSpace=wrap;rounded=0;" vertex="1" parent="1">
          <mxGeometry x="370" y="40" width="200" height="30" as="geometry" />
        </mxCell>
        <mxCell id="Xt39_B0bdLKIF7K6Xh9_-14" style="edgeStyle=orthogonalEdgeStyle;rounded=0;orthogonalLoop=1;jettySize=auto;html=1;exitX=0.5;exitY=1;exitDx=0;exitDy=0;entryX=0.5;entryY=0;entryDx=0;entryDy=0;" edge="1" parent="1" source="Xt39_B0bdLKIF7K6Xh9_-5" target="Xt39_B0bdLKIF7K6Xh9_-11">
          <mxGeometry relative="1" as="geometry" />
        </mxCell>
        <mxCell id="Xt39_B0bdLKIF7K6Xh9_-5" value="Data Source Review" style="rounded=0;whiteSpace=wrap;html=1;" vertex="1" parent="1">
          <mxGeometry x="135" y="90" width="190" height="30" as="geometry" />
        </mxCell>
        <mxCell id="Xt39_B0bdLKIF7K6Xh9_-19" style="edgeStyle=orthogonalEdgeStyle;rounded=0;orthogonalLoop=1;jettySize=auto;html=1;exitX=0.5;exitY=1;exitDx=0;exitDy=0;entryX=0.5;entryY=0;entryDx=0;entryDy=0;" edge="1" parent="1" source="Xt39_B0bdLKIF7K6Xh9_-6" target="Xt39_B0bdLKIF7K6Xh9_-16">
          <mxGeometry relative="1" as="geometry" />
        </mxCell>
        <mxCell id="Xt39_B0bdLKIF7K6Xh9_-6" value="Base Model Review" style="rounded=0;whiteSpace=wrap;html=1;" vertex="1" parent="1">
          <mxGeometry x="380" y="90" width="180" height="30" as="geometry" />
        </mxCell>
        <mxCell id="Xt39_B0bdLKIF7K6Xh9_-22" style="edgeStyle=orthogonalEdgeStyle;rounded=0;orthogonalLoop=1;jettySize=auto;html=1;exitX=0.5;exitY=1;exitDx=0;exitDy=0;entryX=0.5;entryY=0;entryDx=0;entryDy=0;" edge="1" parent="1" source="Xt39_B0bdLKIF7K6Xh9_-11" target="Xt39_B0bdLKIF7K6Xh9_-20">
          <mxGeometry relative="1" as="geometry" />
        </mxCell>
        <mxCell id="Xt39_B0bdLKIF7K6Xh9_-11" value="Data Source Whitelist" style="rounded=0;whiteSpace=wrap;html=1;fillColor=#fff2cc;strokeColor=#d6b656;" vertex="1" parent="1">
          <mxGeometry x="135" y="150" width="190" height="30" as="geometry" />
        </mxCell>
        <mxCell id="Xt39_B0bdLKIF7K6Xh9_-29" style="edgeStyle=orthogonalEdgeStyle;rounded=0;orthogonalLoop=1;jettySize=auto;html=1;exitX=0.5;exitY=1;exitDx=0;exitDy=0;entryX=0.5;entryY=0;entryDx=0;entryDy=0;" edge="1" parent="1" source="Xt39_B0bdLKIF7K6Xh9_-16" target="Xt39_B0bdLKIF7K6Xh9_-28">
          <mxGeometry relative="1" as="geometry" />
        </mxCell>
        <mxCell id="Xt39_B0bdLKIF7K6Xh9_-16" value="Base Model Whitelist" style="rounded=0;whiteSpace=wrap;html=1;fillColor=#fff2cc;strokeColor=#d6b656;" vertex="1" parent="1">
          <mxGeometry x="380" y="150" width="180" height="30" as="geometry" />
        </mxCell>
        <mxCell id="Xt39_B0bdLKIF7K6Xh9_-25" style="edgeStyle=orthogonalEdgeStyle;rounded=0;orthogonalLoop=1;jettySize=auto;html=1;exitX=0.5;exitY=1;exitDx=0;exitDy=0;entryX=0.5;entryY=0;entryDx=0;entryDy=0;" edge="1" parent="1" source="Xt39_B0bdLKIF7K6Xh9_-20" target="Xt39_B0bdLKIF7K6Xh9_-23">
          <mxGeometry relative="1" as="geometry" />
        </mxCell>
        <mxCell id="Xt39_B0bdLKIF7K6Xh9_-20" value="Data Curation" style="rounded=0;whiteSpace=wrap;html=1;fillColor=#dae8fc;strokeColor=#6c8ebf;" vertex="1" parent="1">
          <mxGeometry x="135" y="210" width="190" height="30" as="geometry" />
        </mxCell>
        <mxCell id="Xt39_B0bdLKIF7K6Xh9_-27" style="edgeStyle=orthogonalEdgeStyle;rounded=0;orthogonalLoop=1;jettySize=auto;html=1;entryX=0;entryY=0.5;entryDx=0;entryDy=0;" edge="1" parent="1" source="Xt39_B0bdLKIF7K6Xh9_-23" target="Xt39_B0bdLKIF7K6Xh9_-11">
          <mxGeometry relative="1" as="geometry">
            <Array as="points">
              <mxPoint x="115" y="285" />
              <mxPoint x="115" y="165" />
            </Array>
          </mxGeometry>
        </mxCell>
        <mxCell id="Xt39_B0bdLKIF7K6Xh9_-23" value="Data Source Verification" style="rounded=0;whiteSpace=wrap;html=1;" vertex="1" parent="1">
          <mxGeometry x="135" y="270" width="190" height="30" as="geometry" />
        </mxCell>
        <mxCell id="Xt39_B0bdLKIF7K6Xh9_-28" value="Pre-Train Verification" style="rounded=0;whiteSpace=wrap;html=1;" vertex="1" parent="1">
          <mxGeometry x="375" y="270" width="190" height="30" as="geometry" />
        </mxCell>
        <mxCell id="Xt39_B0bdLKIF7K6Xh9_-30" value="Update" style="text;html=1;align=center;verticalAlign=middle;whiteSpace=wrap;rounded=0;" vertex="1" parent="1">
          <mxGeometry x="50" y="210" width="60" height="30" as="geometry" />
        </mxCell>
        <mxCell id="Xt39_B0bdLKIF7K6Xh9_-39" style="edgeStyle=orthogonalEdgeStyle;rounded=0;orthogonalLoop=1;jettySize=auto;html=1;exitX=0.5;exitY=1;exitDx=0;exitDy=0;entryX=0.5;entryY=0;entryDx=0;entryDy=0;" edge="1" parent="1" source="Xt39_B0bdLKIF7K6Xh9_-31" target="Xt39_B0bdLKIF7K6Xh9_-35">
          <mxGeometry relative="1" as="geometry" />
        </mxCell>
        <mxCell id="Xt39_B0bdLKIF7K6Xh9_-31" value="Model Training / Fine-tuning / Distillation /&amp;nbsp;&lt;div&gt;Other Pre- or Post-training Workflows&lt;/div&gt;" style="rounded=0;whiteSpace=wrap;html=1;fillColor=#dae8fc;strokeColor=#6c8ebf;" vertex="1" parent="1">
          <mxGeometry x="135" y="330" width="425" height="30" as="geometry" />
        </mxCell>
        <mxCell id="Xt39_B0bdLKIF7K6Xh9_-32" style="edgeStyle=orthogonalEdgeStyle;rounded=0;orthogonalLoop=1;jettySize=auto;html=1;exitX=0.5;exitY=1;exitDx=0;exitDy=0;entryX=0.793;entryY=0.067;entryDx=0;entryDy=0;entryPerimeter=0;" edge="1" parent="1" source="Xt39_B0bdLKIF7K6Xh9_-28" target="Xt39_B0bdLKIF7K6Xh9_-31">
          <mxGeometry relative="1" as="geometry" />
        </mxCell>
        <mxCell id="Xt39_B0bdLKIF7K6Xh9_-34" style="edgeStyle=orthogonalEdgeStyle;rounded=0;orthogonalLoop=1;jettySize=auto;html=1;exitX=0.5;exitY=1;exitDx=0;exitDy=0;entryX=0.221;entryY=0.1;entryDx=0;entryDy=0;entryPerimeter=0;" edge="1" parent="1" source="Xt39_B0bdLKIF7K6Xh9_-23" target="Xt39_B0bdLKIF7K6Xh9_-31">
          <mxGeometry relative="1" as="geometry" />
        </mxCell>
        <mxCell id="Xt39_B0bdLKIF7K6Xh9_-40" style="edgeStyle=orthogonalEdgeStyle;rounded=0;orthogonalLoop=1;jettySize=auto;html=1;exitX=0.5;exitY=1;exitDx=0;exitDy=0;entryX=0.5;entryY=0;entryDx=0;entryDy=0;" edge="1" parent="1" source="Xt39_B0bdLKIF7K6Xh9_-35" target="Xt39_B0bdLKIF7K6Xh9_-36">
          <mxGeometry relative="1" as="geometry" />
        </mxCell>
        <mxCell id="Xt39_B0bdLKIF7K6Xh9_-35" value="Pre-release Compliance Testing" style="rounded=0;whiteSpace=wrap;html=1;" vertex="1" parent="1">
          <mxGeometry x="135" y="390" width="425" height="30" as="geometry" />
        </mxCell>
        <mxCell id="Xt39_B0bdLKIF7K6Xh9_-41" style="edgeStyle=orthogonalEdgeStyle;rounded=0;orthogonalLoop=1;jettySize=auto;html=1;exitX=0.5;exitY=1;exitDx=0;exitDy=0;entryX=0.5;entryY=0;entryDx=0;entryDy=0;" edge="1" parent="1" source="Xt39_B0bdLKIF7K6Xh9_-36" target="Xt39_B0bdLKIF7K6Xh9_-38">
          <mxGeometry relative="1" as="geometry" />
        </mxCell>
        <mxCell id="Xt39_B0bdLKIF7K6Xh9_-36" value="License Choosing/Drafting, License Compatibility Testing" style="rounded=0;whiteSpace=wrap;html=1;" vertex="1" parent="1">
          <mxGeometry x="135" y="450" width="425" height="30" as="geometry" />
        </mxCell>
        <mxCell id="Xt39_B0bdLKIF7K6Xh9_-54" style="edgeStyle=orthogonalEdgeStyle;rounded=0;orthogonalLoop=1;jettySize=auto;html=1;exitX=0.5;exitY=1;exitDx=0;exitDy=0;entryX=0.5;entryY=0;entryDx=0;entryDy=0;" edge="1" parent="1" source="Xt39_B0bdLKIF7K6Xh9_-38" target="Xt39_B0bdLKIF7K6Xh9_-51">
          <mxGeometry relative="1" as="geometry">
            <Array as="points">
              <mxPoint x="348" y="580" />
              <mxPoint x="348" y="580" />
            </Array>
          </mxGeometry>
        </mxCell>
        <mxCell id="Xt39_B0bdLKIF7K6Xh9_-55" style="edgeStyle=orthogonalEdgeStyle;rounded=0;orthogonalLoop=1;jettySize=auto;html=1;exitX=0.75;exitY=1;exitDx=0;exitDy=0;entryX=0.5;entryY=0;entryDx=0;entryDy=0;" edge="1" parent="1" source="Xt39_B0bdLKIF7K6Xh9_-38" target="Xt39_B0bdLKIF7K6Xh9_-47">
          <mxGeometry relative="1" as="geometry">
            <Array as="points">
              <mxPoint x="500" y="540" />
            </Array>
          </mxGeometry>
        </mxCell>
        <mxCell id="Xt39_B0bdLKIF7K6Xh9_-77" style="edgeStyle=orthogonalEdgeStyle;rounded=0;orthogonalLoop=1;jettySize=auto;html=1;exitX=0.25;exitY=1;exitDx=0;exitDy=0;" edge="1" parent="1" source="Xt39_B0bdLKIF7K6Xh9_-38" target="Xt39_B0bdLKIF7K6Xh9_-44">
          <mxGeometry relative="1" as="geometry">
            <Array as="points">
              <mxPoint x="193" y="540" />
            </Array>
          </mxGeometry>
        </mxCell>
        <mxCell id="Xt39_B0bdLKIF7K6Xh9_-38" value="Model Bill of Materials (AI-BOM), Compliance Documents" style="rounded=0;whiteSpace=wrap;html=1;fillColor=#fff2cc;strokeColor=#d6b656;" vertex="1" parent="1">
          <mxGeometry x="135" y="510" width="425" height="30" as="geometry" />
        </mxCell>
        <mxCell id="Xt39_B0bdLKIF7K6Xh9_-43" value="Model Developing" style="text;html=1;align=center;verticalAlign=middle;whiteSpace=wrap;rounded=0;fontStyle=1;fontSize=13;" vertex="1" parent="1">
          <mxGeometry y="20" width="220" height="30" as="geometry" />
        </mxCell>
        <mxCell id="Xt39_B0bdLKIF7K6Xh9_-44" value="External Knowledge Base Review" style="rounded=0;whiteSpace=wrap;html=1;" vertex="1" parent="1">
          <mxGeometry x="135" y="619" width="115" height="30" as="geometry" />
        </mxCell>
        <mxCell id="Xt39_B0bdLKIF7K6Xh9_-47" value="Output Control" style="rounded=0;whiteSpace=wrap;html=1;" vertex="1" parent="1">
          <mxGeometry x="460" y="619" width="80" height="30" as="geometry" />
        </mxCell>
        <mxCell id="Xt39_B0bdLKIF7K6Xh9_-58" style="edgeStyle=orthogonalEdgeStyle;rounded=0;orthogonalLoop=1;jettySize=auto;html=1;exitX=0.5;exitY=1;exitDx=0;exitDy=0;entryX=0.5;entryY=0;entryDx=0;entryDy=0;" edge="1" parent="1" source="Xt39_B0bdLKIF7K6Xh9_-51" target="Xt39_B0bdLKIF7K6Xh9_-56">
          <mxGeometry relative="1" as="geometry" />
        </mxCell>
        <mxCell id="Xt39_B0bdLKIF7K6Xh9_-51" value="Input Control" style="rounded=0;whiteSpace=wrap;html=1;" vertex="1" parent="1">
          <mxGeometry x="302.5" y="619" width="90" height="30" as="geometry" />
        </mxCell>
        <mxCell id="Xt39_B0bdLKIF7K6Xh9_-78" style="edgeStyle=orthogonalEdgeStyle;rounded=0;orthogonalLoop=1;jettySize=auto;html=1;exitX=0.25;exitY=1;exitDx=0;exitDy=0;entryX=0.5;entryY=0;entryDx=0;entryDy=0;" edge="1" parent="1" source="Xt39_B0bdLKIF7K6Xh9_-56" target="Xt39_B0bdLKIF7K6Xh9_-60">
          <mxGeometry relative="1" as="geometry">
            <Array as="points">
              <mxPoint x="183" y="704" />
              <mxPoint x="183" y="724" />
            </Array>
          </mxGeometry>
        </mxCell>
        <mxCell id="Xt39_B0bdLKIF7K6Xh9_-79" style="edgeStyle=orthogonalEdgeStyle;rounded=0;orthogonalLoop=1;jettySize=auto;html=1;exitX=0.5;exitY=1;exitDx=0;exitDy=0;entryX=0.5;entryY=0;entryDx=0;entryDy=0;" edge="1" parent="1" source="Xt39_B0bdLKIF7K6Xh9_-56" target="Xt39_B0bdLKIF7K6Xh9_-61">
          <mxGeometry relative="1" as="geometry">
            <Array as="points">
              <mxPoint x="293" y="704" />
              <mxPoint x="293" y="724" />
            </Array>
          </mxGeometry>
        </mxCell>
        <mxCell id="Xt39_B0bdLKIF7K6Xh9_-80" style="edgeStyle=orthogonalEdgeStyle;rounded=0;orthogonalLoop=1;jettySize=auto;html=1;exitX=0.5;exitY=1;exitDx=0;exitDy=0;" edge="1" parent="1" source="Xt39_B0bdLKIF7K6Xh9_-56" target="Xt39_B0bdLKIF7K6Xh9_-62">
          <mxGeometry relative="1" as="geometry">
            <Array as="points">
              <mxPoint x="408" y="704" />
            </Array>
          </mxGeometry>
        </mxCell>
        <mxCell id="Xt39_B0bdLKIF7K6Xh9_-81" style="edgeStyle=orthogonalEdgeStyle;rounded=0;orthogonalLoop=1;jettySize=auto;html=1;exitX=0.75;exitY=1;exitDx=0;exitDy=0;" edge="1" parent="1" source="Xt39_B0bdLKIF7K6Xh9_-56" target="Xt39_B0bdLKIF7K6Xh9_-63">
          <mxGeometry relative="1" as="geometry">
            <Array as="points">
              <mxPoint x="513" y="704" />
            </Array>
          </mxGeometry>
        </mxCell>
        <mxCell id="Xt39_B0bdLKIF7K6Xh9_-56" value="AI Application Development" style="rounded=0;whiteSpace=wrap;html=1;fillColor=#dae8fc;strokeColor=#6c8ebf;" vertex="1" parent="1">
          <mxGeometry x="135" y="674" width="425" height="30" as="geometry" />
        </mxCell>
        <mxCell id="Xt39_B0bdLKIF7K6Xh9_-57" style="edgeStyle=orthogonalEdgeStyle;rounded=0;orthogonalLoop=1;jettySize=auto;html=1;exitX=0.5;exitY=1;exitDx=0;exitDy=0;entryX=0.134;entryY=0;entryDx=0;entryDy=0;entryPerimeter=0;" edge="1" parent="1" source="Xt39_B0bdLKIF7K6Xh9_-44" target="Xt39_B0bdLKIF7K6Xh9_-56">
          <mxGeometry relative="1" as="geometry" />
        </mxCell>
        <mxCell id="Xt39_B0bdLKIF7K6Xh9_-59" style="edgeStyle=orthogonalEdgeStyle;rounded=0;orthogonalLoop=1;jettySize=auto;html=1;exitX=0.5;exitY=1;exitDx=0;exitDy=0;entryX=0.861;entryY=-0.033;entryDx=0;entryDy=0;entryPerimeter=0;" edge="1" parent="1" source="Xt39_B0bdLKIF7K6Xh9_-47" target="Xt39_B0bdLKIF7K6Xh9_-56">
          <mxGeometry relative="1" as="geometry" />
        </mxCell>
        <mxCell id="Xt39_B0bdLKIF7K6Xh9_-60" value="Algorithm Registration" style="rounded=0;whiteSpace=wrap;html=1;" vertex="1" parent="1">
          <mxGeometry x="135" y="734" width="95" height="30" as="geometry" />
        </mxCell>
        <mxCell id="Xt39_B0bdLKIF7K6Xh9_-61" value="Generative AI Registration" style="rounded=0;whiteSpace=wrap;html=1;" vertex="1" parent="1">
          <mxGeometry x="245" y="734" width="95" height="30" as="geometry" />
        </mxCell>
        <mxCell id="Xt39_B0bdLKIF7K6Xh9_-62" value="Cybersecurity&amp;nbsp;" style="rounded=0;whiteSpace=wrap;html=1;" vertex="1" parent="1">
          <mxGeometry x="360" y="734" width="95" height="30" as="geometry" />
        </mxCell>
        <mxCell id="Xt39_B0bdLKIF7K6Xh9_-63" value="TOS" style="rounded=0;whiteSpace=wrap;html=1;" vertex="1" parent="1">
          <mxGeometry x="465" y="734" width="95" height="30" as="geometry" />
        </mxCell>
        <mxCell id="Xt39_B0bdLKIF7K6Xh9_-74" style="edgeStyle=orthogonalEdgeStyle;rounded=0;orthogonalLoop=1;jettySize=auto;html=1;exitX=0.5;exitY=1;exitDx=0;exitDy=0;entryX=0.5;entryY=0;entryDx=0;entryDy=0;" edge="1" parent="1" source="Xt39_B0bdLKIF7K6Xh9_-64" target="Xt39_B0bdLKIF7K6Xh9_-73">
          <mxGeometry relative="1" as="geometry" />
        </mxCell>
        <mxCell id="Xt39_B0bdLKIF7K6Xh9_-64" value="Application Online" style="rounded=0;whiteSpace=wrap;html=1;fillColor=#dae8fc;strokeColor=#6c8ebf;" vertex="1" parent="1">
          <mxGeometry x="135" y="794" width="425" height="30" as="geometry" />
        </mxCell>
        <mxCell id="Xt39_B0bdLKIF7K6Xh9_-69" style="edgeStyle=orthogonalEdgeStyle;rounded=0;orthogonalLoop=1;jettySize=auto;html=1;exitX=0.5;exitY=1;exitDx=0;exitDy=0;entryX=0.115;entryY=0.067;entryDx=0;entryDy=0;entryPerimeter=0;" edge="1" parent="1" source="Xt39_B0bdLKIF7K6Xh9_-60" target="Xt39_B0bdLKIF7K6Xh9_-64">
          <mxGeometry relative="1" as="geometry" />
        </mxCell>
        <mxCell id="Xt39_B0bdLKIF7K6Xh9_-70" style="edgeStyle=orthogonalEdgeStyle;rounded=0;orthogonalLoop=1;jettySize=auto;html=1;exitX=0.5;exitY=1;exitDx=0;exitDy=0;" edge="1" parent="1" source="Xt39_B0bdLKIF7K6Xh9_-61">
          <mxGeometry relative="1" as="geometry">
            <mxPoint x="292" y="792" as="targetPoint" />
          </mxGeometry>
        </mxCell>
        <mxCell id="Xt39_B0bdLKIF7K6Xh9_-71" style="edgeStyle=orthogonalEdgeStyle;rounded=0;orthogonalLoop=1;jettySize=auto;html=1;exitX=0.5;exitY=1;exitDx=0;exitDy=0;entryX=0.645;entryY=-0.1;entryDx=0;entryDy=0;entryPerimeter=0;" edge="1" parent="1" source="Xt39_B0bdLKIF7K6Xh9_-62" target="Xt39_B0bdLKIF7K6Xh9_-64">
          <mxGeometry relative="1" as="geometry" />
        </mxCell>
        <mxCell id="Xt39_B0bdLKIF7K6Xh9_-72" style="edgeStyle=orthogonalEdgeStyle;rounded=0;orthogonalLoop=1;jettySize=auto;html=1;exitX=0.5;exitY=1;exitDx=0;exitDy=0;entryX=0.885;entryY=0.067;entryDx=0;entryDy=0;entryPerimeter=0;" edge="1" parent="1" source="Xt39_B0bdLKIF7K6Xh9_-63" target="Xt39_B0bdLKIF7K6Xh9_-64">
          <mxGeometry relative="1" as="geometry" />
        </mxCell>
        <mxCell id="Xt39_B0bdLKIF7K6Xh9_-73" value="Infringement Complaint, Regulatory Investigation Response" style="rounded=0;whiteSpace=wrap;html=1;" vertex="1" parent="1">
          <mxGeometry x="135" y="854" width="425" height="30" as="geometry" />
        </mxCell>
        <mxCell id="Xt39_B0bdLKIF7K6Xh9_-76" value="App Developing" style="text;html=1;align=center;verticalAlign=middle;whiteSpace=wrap;rounded=0;fontStyle=1;fontSize=13;" vertex="1" parent="1">
          <mxGeometry y="570" width="220" height="30" as="geometry" />
        </mxCell>
        <mxCell id="Xt39_B0bdLKIF7K6Xh9_-83" value="Compliance Procedures" style="rounded=0;whiteSpace=wrap;html=1;" vertex="1" parent="1">
          <mxGeometry x="130" y="930" width="150" height="30" as="geometry" />
        </mxCell>
        <mxCell id="Xt39_B0bdLKIF7K6Xh9_-84" value="Compliance Artifacts" style="rounded=0;whiteSpace=wrap;html=1;fillColor=#fff2cc;strokeColor=#d6b656;" vertex="1" parent="1">
          <mxGeometry x="302.5" y="930" width="150" height="30" as="geometry" />
        </mxCell>
        <mxCell id="Xt39_B0bdLKIF7K6Xh9_-85" value="Engineering Workflow" style="rounded=0;whiteSpace=wrap;html=1;fillColor=#dae8fc;strokeColor=#6c8ebf;" vertex="1" parent="1">
          <mxGeometry x="480" y="930" width="150" height="30" as="geometry" />
        </mxCell>
      </root>
    </mxGraphModel>
  </diagram>
</mxfile>
